<?xml version="1.0" encoding="UTF-8"?>
<svg id="Layer_3" data-name="Layer 3" xmlns="http://www.w3.org/2000/svg" viewBox="0 0 61.94 26.72">
  <defs>
    <style>
      .cls-1 {
        letter-spacing: 0em;
      }

      .cls-2 {
        letter-spacing: .01em;
      }

      .cls-3 {
        fill: #f2e205;
      }

      .cls-4 {
        fill: #fff;
        font-family: FinalSix-Black, FinalSix;
        font-size: 12.63px;
        font-weight: 800;
      }

      .cls-5 {
        letter-spacing: 0em;
      }

      .cls-6 {
        letter-spacing: .03em;
      }

      .cls-7 {
        letter-spacing: -.01em;
      }
    </style>
  </defs>
  <g id="Layer_1" data-name="Layer 1">
    <g>
      <text class="cls-4" transform="translate(18.72 10.99)"><tspan class="cls-7" x="0" y="0">P</tspan><tspan class="cls-5" x="8.7" y="0">ER</tspan><tspan class="cls-6" x="26.35" y="0">E</tspan><tspan class="cls-5" x="34.97" y="0">Z</tspan></text>
      <text class="cls-4" transform="translate(18.72 22.83)"><tspan class="cls-2" x="0" y="0">JE</tspan><tspan x="14.46" y="0">S</tspan><tspan class="cls-1" x="22.78" y="0">U</tspan><tspan class="cls-5" x="32.46" y="0">S</tspan></text>
      <g>
        <path class="cls-3" d="M4.57,1.74H0v10.63h1.15v-3.19h1.54l.35-1.11h-1.89V2.85h3.37s.1,0,.15,0l.34-1.09c-.15-.01-.29-.02-.44-.02Z"/>
        <path class="cls-3" d="M4.95,1.55l-.33,1.09c1.38.04,2.44.91,2.44,2.63s-1.11,2.6-2.53,2.6h-1.51l-.34,1.11h1.89c2.04,0,3.7-1.25,3.7-3.7s-1.46-3.57-3.32-3.72Z"/>
        <path class="cls-3" d="M5.64,22.74c-.08,0-.16,0-.25-.01-.95-.11-1.78-.9-2.02-1.91-.19-.82,0-1.77.52-2.6.48-.77,1.18-1.35,1.73-1.77.46-.35.93-.68,1.42-.98l-.16-2.13c-1.06-.13-2.04-.8-2.54-1.75l.95-.5c.3.57.87,1,1.5,1.14l-.04-.48c-.03-.37-.07-.94.27-1.4.24-.33.63-.52,1.08-.53h0c.48,0,.92.21,1.19.58.46.62.4,1.56-.16,2.19-.3.34-.72.58-1.2.7l.12,1.6c.64-.34,1.31-.64,1.99-.89l.38,1.01c-.79.3-1.55.65-2.28,1.06l.14,1.81c.07.94.15,2-.23,3.01-.37.96-1.31,1.87-2.44,1.87ZM7.14,16.69c-.29.2-.58.4-.86.61-.48.37-1.08.87-1.47,1.49-.37.59-.51,1.24-.38,1.78.13.57.59,1.03,1.09,1.08.69.08,1.31-.54,1.55-1.17.3-.78.23-1.71.16-2.54l-.09-1.26ZM8.12,10.9h0s-.16,0-.21.08c-.11.15-.08.47-.07.69l.04.51c.19-.07.35-.18.47-.31.21-.24.26-.62.1-.84-.06-.09-.2-.14-.33-.14Z"/>
      </g>
    </g>
  </g>
</svg>